<?xml version="1.0" encoding="UTF-8"?>
<svg id="Layer_2" data-name="Layer 2" xmlns="http://www.w3.org/2000/svg" viewBox="0 0 34.29 23.18">
  <defs>
    <style>
      .cls-1 {
        fill: #1921be;
      }
    </style>
  </defs>
  <g id="Layer_1-2" data-name="Layer 1">
    <path class="cls-1" d="m6.53,15.59c-2,.89-4.08-.71-4.76-2.54-.56-1.51-.37-3.26.64-4.53s2.81-2.02,4.49-1.97c2.11.06,3.73,1.43,5.23,2.77.44.39,1.34.16,1.28-.53-.23-2.55.74-5.56,3.09-6.9,3.19-1.82,4.41,3.05,4.84,5.2.12.62,1.09.75,1.37.18.69-1.41,2.11-2.98,3.84-2.25,1.85.78,1.91,2.98,1.38,4.63-.24.75.73,1.21,1.25.73,1.08-.97,2.74-.49,3.35.76s.13,2.7-.77,3.68-2.14,1.53-3.39,1.88c-1.18.33-2.85.77-3.88-.14-.53-.47-1.48-.03-1.25.73.63,2.09-1.01,3.95-3.11,4s-3.73-1.58-4.21-3.58l-1.37.58c1.19,2.29-1.72,3.8-3.61,3.18-2.41-.8-3.31-3.33-3.5-5.64-.08-.96-1.58-.96-1.5,0,.28,3.38,2.03,7.07,5.85,7.33,2.96.2,5.51-2.8,4.05-5.62-.4-.77-1.56-.23-1.37.58.68,2.84,3.21,5.01,6.23,4.63,2.82-.36,4.82-3.05,3.99-5.85l-1.25.73c1.55,1.37,3.72,1.01,5.55.47,2.05-.61,4.04-1.81,4.93-3.84.72-1.66.45-3.75-.95-4.98s-3.48-1.17-4.83.06l1.25.73c.76-2.38.3-5.34-2.24-6.42s-4.69.77-5.72,2.88l1.37.18c-.59-2.91-2.2-7.77-6.17-6.49-3.37,1.09-5.01,5.34-4.71,8.59l1.28-.53c-1.99-1.78-4.16-3.41-6.97-3.19-2.31.18-4.63,1.44-5.66,3.58-2.03,4.2,1.82,10.41,6.73,8.23.88-.39.12-1.68-.76-1.3h0Z"/>
  </g>
</svg>