<?xml version="1.0" encoding="UTF-8"?>
<svg id="Layer_1" data-name="Layer 1" xmlns="http://www.w3.org/2000/svg" viewBox="0 0 106.32 20.37">
  <defs>
    <style>
      .cls-1 {
        fill: #fff;
      }
    </style>
  </defs>
  <path class="cls-1" d="m85.33,6.79c1.5-1,3.19-1.55,4.9-2.08,1.92-.59,3.83-1.18,5.75-1.76l-.58-1.37c-.09.05-.19.11-.28.16-.83.48-.08,1.78.76,1.3.09-.05.19-.11.28-.16.72-.42.25-1.62-.58-1.37-1.98.61-3.96,1.21-5.93,1.82-1.76.54-3.53,1.14-5.07,2.17-.8.53-.05,1.83.76,1.3h0Z"/>
  <path class="cls-1" d="m88.57,4.85c1.15,3.89,2.17,7.82,3.07,11.78.21.94,1.66.54,1.45-.4-.9-3.96-1.92-7.89-3.07-11.78-.27-.92-1.72-.53-1.45.4h0Z"/>
  <path class="cls-1" d="m94.84,5.07l1.27,10.93c.05.41.31.75.75.75.37,0,.8-.35.75-.75l-1.27-10.93c-.05-.41-.31-.75-.75-.75-.37,0-.8.35-.75.75h0Z"/>
  <path class="cls-1" d="m93.77,9.2c3.93.43,7.87.67,11.82.72.97.01.97-1.49,0-1.5-3.95-.05-7.9-.29-11.82-.72-.96-.1-.95,1.4,0,1.5h0Z"/>
  <path class="cls-1" d="m102.01,3.41c-.87,5.24-1.57,10.51-2.1,15.79-.1.96,1.4.95,1.5,0,.52-5.15,1.2-10.28,2.05-15.39.16-.94-1.29-1.35-1.45-.4h0Z"/>
  <path class="cls-1" d="m41.79,5.65c-.72.21-1.09.88-1.24,1.57-.16.74-.18,1.52.03,2.25.39,1.35,1.56,2.41,2.99,2.49s2.6-1,3.01-2.27c.44-1.36-.08-2.86-.99-3.9-1.02-1.17-2.97-1.75-4.15-.45-.27.3-.3.76,0,1.06.28.28.79.3,1.06,0,.23-.25.49-.35.89-.3-.08,0,.14.04.18.05.1.03.12.04.2.08.22.11.38.23.55.39.63.61,1.03,1.49.9,2.36-.1.67-.62,1.3-1.26,1.45-.31.08-.67.02-.98-.15-.35-.19-.6-.45-.78-.8-.24-.46-.3-.97-.26-1.48.02-.24.07-.49.15-.73,0,0,.05-.11.02-.06s.06-.1.07-.12c-.04.08,0,0,.02-.02-.09.07.11-.02-.01.02.93-.27.53-1.71-.4-1.45h0Z"/>
  <path class="cls-1" d="m48.27,6.18c.13-.37.4-1.22.93-1.19s.54.95.52,1.32c-.06,1.33-.35,2.68-.79,3.94-.81,2.3-2.37,4.3-4.55,5.41l.76,1.3c2.5-1.81,5.21-3.3,8.1-4.4.89-.34.51-1.79-.4-1.45-3.01,1.15-5.85,2.66-8.45,4.55-.77.56-.12,1.74.76,1.3,3.14-1.61,5.07-4.81,5.76-8.2.3-1.49.83-3.75-.56-4.85-.63-.5-1.46-.53-2.15-.12-.74.43-1.08,1.22-1.36,2-.32.91,1.13,1.3,1.45.4h0Z"/>
  <path class="cls-1" d="m54.9,4.99l-.39.02c-.33.01-.64.22-.72.55-.28,1.1-.47,2.25-.23,3.37s1.04,2.3,2.28,2.27,2.14-1.12,2.39-2.21c.27-1.17-.11-2.4-.86-3.31s-2.14-1.48-3.16-.74c-.33.24-.49.65-.27,1.03.19.32.7.51,1.03.27.04-.03.25-.14.1-.08.03-.01.23-.06.14-.04-.08.01.11,0,.15,0-.03,0-.15-.03,0,0,.04,0,.09.02.13.03s.08.03.13.04c-.03,0-.12-.06,0,0,.07.04.14.07.21.12.03.02.21.15.11.07.07.06.14.12.21.19.02.02.19.22.11.11.06.08.11.16.16.24.11.18.2.36.25.48.15.42.19.65.15,1.07,0,.09,0,0,0-.02,0,.05-.02.1-.03.15-.02.08-.04.17-.07.25,0,.02-.06.16-.03.08.03-.07-.02.04-.02.04-.05.1-.11.19-.17.28-.07.1.06-.07-.02.02-.02.03-.05.06-.07.08-.07.07-.14.14-.21.2.01-.01.07-.05,0,0-.05.03-.09.06-.14.08-.07.04-.03.02-.01.01-.06.03-.13.05-.2.06-.05,0-.12,0-.18-.03-.03-.02-.06-.04-.09-.05-.1-.06.07.07-.02-.01-.07-.06-.14-.13-.2-.21-.08-.09.05.08-.01-.02-.02-.03-.04-.06-.06-.09-.05-.09-.1-.18-.14-.27.03.07-.04-.13-.05-.16-.04-.11-.07-.23-.09-.35,0-.04-.01-.08-.02-.12,0-.05,0-.05,0,0v-.08c-.02-.11-.03-.22-.03-.32,0-.23,0-.47.03-.7,0-.01.02-.18.01-.11,0,.04.02-.15.02-.15.02-.11.04-.22.06-.33.05-.24.11-.49.17-.73l-.72.55.39-.02c.39-.02.77-.33.75-.75-.02-.39-.33-.77-.75-.75h0Z"/>
  <path class="cls-1" d="m60.79,3.67c-.54,1.69-.95,3.42-1.25,5.17-.1.6.33,1.01.92.92.78-.11,1.37-.63,2.12-.79,1.18-.26.5.98.15,1.5-.91,1.36-2.29,2.32-3.65,3.17-3.16,2-6.48,3.77-9.86,5.36-.87.41-.11,1.7.76,1.3,2.2-1.03,4.37-2.15,6.49-3.35,1.91-1.08,3.89-2.18,5.59-3.58,1.21-.99,3.22-2.97,2.66-4.73-.25-.79-1.03-1.21-1.83-1.21-1.04,0-1.82.75-2.82.89l.92.92c.3-1.75.72-3.47,1.25-5.17.29-.92-1.16-1.32-1.45-.4h0Z"/>
  <path class="cls-1" d="m62,4.76c.29-.17.59-.32.89-.46.08-.04.16-.07.24-.11-.12.05.03,0,.07-.03.16-.06.31-.12.47-.17.62-.21,1.26-.37,1.91-.46.39-.06.64-.57.52-.92-.14-.43-.51-.59-.92-.52-1.39.2-2.73.68-3.94,1.38-.34.2-.49.69-.27,1.03s.66.48,1.03.27h0Z"/>
  <path class="cls-1" d="m10.31,2.57c-1.1-.12-2.06.65-2.62,1.54-.59.94-.84,2.14-.77,3.24.14,2.06,1.43,4.17,3.59,4.55,1.93.34,3.99-.6,4.87-2.38s.63-4.1-.66-5.71c-1.54-1.92-4.39-2.42-6.3-.76-.73.63.33,1.69,1.06,1.06,1.12-.97,2.78-.65,3.78.32s1.41,2.51,1,3.87c-.38,1.25-1.51,2.12-2.82,2.17-1.48.05-2.54-1.04-2.89-2.42-.23-.88-.17-1.85.18-2.7.27-.65.8-1.37,1.58-1.28.4.04.75-.38.75-.75,0-.44-.35-.71-.75-.75h0Z"/>
  <path class="cls-1" d="m11.56,12.03c1.16,1.04,1.96,2.34,2.67,3.71.37.72.72,1.46,1.08,2.18.32.65.63,1.39,1.15,1.91.65.64,1.45.59,2.24.25.63-.27,1.28-.63,1.63-1.24.44-.77.17-1.55-.32-2.21-.55-.73-1.1-1.47-1.63-2.22-.58-.83-1.14-1.68-1.69-2.54s-1.19-1.72-1.06-2.75c.05-.41-.38-.75-.75-.75-.45,0-.7.35-.75.75-.12,1,.31,1.93.81,2.77.53.9,1.11,1.77,1.7,2.63s1.2,1.72,1.84,2.55c.17.22.64.69.6.96s-.51.47-.72.57c-.28.14-.62.38-.88.12s-.43-.7-.6-1.03c-.41-.8-.79-1.61-1.2-2.4-.8-1.58-1.72-3.12-3.05-4.32-.72-.64-1.78.42-1.06,1.06h0Z"/>
  <path class="cls-1" d="m8.43,3.85c.56,1.26,1.19,2.49,1.92,3.66.36.59.74,1.16,1.15,1.72.2.28.41.56.62.83.12.15.24.31.36.46.05.07.11.13.16.2.08.12.1.14.07.07v-.4l-.03.09.34-.45-.04.02.58-.08h-.04c.11.05.22.11.33.18l.07.08.08.58v-.03c-.17.17-.34.35-.52.52h.04c.4-.08.62-.56.52-.93-.11-.42-.52-.6-.92-.52h-.04c-.23.05-.48.3-.52.53-.09.52.23,1.07.81,1.07.65,0,.96-.72.72-1.26-.18-.4-.56-.75-.82-1.1-.29-.38-.56-.76-.83-1.15-1.05-1.53-1.95-3.16-2.69-4.86-.16-.37-.71-.46-1.03-.27-.38.22-.43.65-.27,1.03h0Z"/>
  <path class="cls-1" d="m8.27,10.18c2.41-1.38,4.65-3.07,6.64-5.02.41-.4.2-1.1-.33-1.25-.14-.04-.28-.08-.42-.12-.93-.27-1.33,1.18-.4,1.45.14.04.28.08.42.12l-.33-1.25c-1.9,1.86-4.03,3.46-6.33,4.78-.84.48-.08,1.78.76,1.3h0Z"/>
  <path class="cls-1" d="m17.08,3.68c.18.6.33,1.21.45,1.82.06.31.11.62.16.93.01.07.02.14.03.21-.02-.15,0,.08.01.09.02.17.04.34.06.5.04.39.32.77.75.75.37-.02.79-.33.75-.75-.13-1.34-.38-2.66-.76-3.95-.11-.38-.53-.65-.92-.52s-.64.52-.52.92h0Z"/>
  <path class="cls-1" d="m17.27,5.98c.2-.1.4-.19.61-.28.03-.01.06-.03.09-.04-.11.04-.12.05-.05.02.04-.02.09-.04.13-.05.1-.04.21-.08.31-.12.42-.16.84-.3,1.28-.42.38-.11.65-.54.52-.92s-.52-.64-.92-.52c-.94.27-1.85.62-2.73,1.05-.35.17-.48.7-.27,1.03.23.36.65.45,1.03.27h0Z"/>
  <path class="cls-1" d="m5.8,13.15l.29,3.77c.03.39.32.77.75.75.38-.02.78-.33.75-.75l-.29-3.77c-.03-.39-.32-.77-.75-.75-.38.02-.78.33-.75.75h0Z"/>
  <path class="cls-1" d="m5.26,15.78c.54-.17,1.1-.29,1.66-.37l-.2.03c.3-.04.61-.07.92-.08.25-.01.53-.13.65-.37.07-.15.13-.29.12-.46-.01-.22-.09-.42-.24-.59-.23-.25-.55-.32-.88-.26-.39.08-.64.56-.52.92.13.41.51.61.92.52h.03c-.07,0-.13.01-.2.02h.03c-.07,0-.13-.02-.2-.02-.2-.06-.34-.2-.41-.4l-.03-.2v.03c.01-.07.02-.13.03-.2l.06-.12.65-.37c-.94.04-1.88.2-2.77.47-.37.12-.65.53-.52.92s.52.65.92.52h0Z"/>
  <path class="cls-1" d="m.95,7.29c.54-.18,1.1-.3,1.66-.38l-.2.03c.16-.02.32-.04.49-.05.2-.02.38-.07.53-.22.13-.13.23-.34.22-.53-.02-.38-.33-.79-.75-.75-.8.07-1.59.21-2.35.46-.18.06-.35.17-.45.34-.09.16-.13.4-.08.58.12.37.52.65.92.52h0Z"/>
  <path class="cls-1" d="m1.29,2.52l1.61,1.35c.16.13.32.22.53.22.18,0,.4-.08.53-.22s.23-.33.22-.53c0-.19-.07-.4-.22-.53l-1.61-1.35c-.16-.13-.32-.22-.53-.22-.18,0-.4.08-.53.22s-.23.33-.22.53c0,.19.07.4.22.53h0Z"/>
  <path class="cls-1" d="m4.59,1.13c.11.19.21.38.29.58l-.08-.18c.14.34.25.7.31,1.07.03.17.2.36.34.45.16.09.4.13.58.08s.36-.17.45-.34l.08-.18c.04-.13.04-.27,0-.4-.11-.64-.34-1.27-.67-1.83-.1-.16-.27-.29-.45-.34s-.42-.03-.58.08-.3.26-.34.45-.03.4.08.58h0Z"/>
</svg>