<?xml version="1.0" encoding="UTF-8"?>
<svg id="Layer_1" data-name="Layer 1" xmlns="http://www.w3.org/2000/svg" viewBox="0 0 109.11 24.6">
  <defs>
    <style>
      .cls-1 {
        fill: #67ff0f;
      }

      .cls-2 {
        fill: #0200ee;
      }

      .cls-3 {
        fill: #f72585;
      }
    </style>
  </defs>
  <path class="cls-3" d="m52.62,12.18c.58-1.99-1.4-3.05-2.99-3.51-1.25-.36-2.47-.78-3.51-1.59-1.31-1.02-1.01-2.67-.03-3.83.71-.85,1.73-.47,2.4.22.36.38.65.83.96,1.26.59.79,1.2,1.37,2.1,1.8,1.13.54,2.09,1.07,2.56,2.32.26.69.51,3.7-.97,3.36l.09.69c.81-.35,2.05.55,2.57,1.12.22.24.65.05.64-.27-.02-.83.08-1.58.89-2.02.35-.19.16-.67-.19-.7-.51-.04-.9.12-1.26-.29-.26-.29-.46-.74-.52-1.12-.2-1.45,1.22-1.76,2.32-2.07.94-.27,1.82-.61,2.56-1.27.86-.77,1.25-1.78,1.86-2.73.16-.24.55-.79.86-.86.47-.11.6.33.74.66.27.67.45,1.38.54,2.1.12.94.25,2.01-.83,2.35-.77.24-1.77.07-2.57.1s-2.28.04-2.56.99c-.11.39.09.79.37,1.06.17.16.39.22.57.36.53.39.74,1.08.22,1.59-.79.78-2.1,1.04-2.26,2.33-.17,1.36.97,2.28,1.97,2.98.18.13.4.02.51-.13.2-.26.26-.5.23-.83-.02-.27-.38-.79-.33-1.04.09-.46.41-.27.63-.15.12.07.35.27.48.37.46.35.93.69,1.39,1.04.89.68,2.14,1.56,2.17,2.81s-1.27,1.77-2.2,2.15l.46.46c.22-1.34.12-2.61-.35-3.89-.09-.23-.44-.41-.63-.17-.26.33-.38.64-.45,1.06-.03.2-.03.41-.08.61-.21.76-.72.72-1.31.5-1.33-.5-2.12-1.79-2.73-3-.57-1.13-1.31-3.35-2.99-3.12-.81.11-1.35.99-1.79,1.6-.79,1.13-1.25,2.45-1.94,3.64-.3.51-.62,1.02-.95,1.51-.45.66-.93.91-1.71.83-1.54-.15-2.85-1.92-1.97-3.37.49-.8,1.32-1.33,2.07-1.86s1.52-1.07,2.28-1.61c.96-.67,2.39-1.19,2.68-2.43.11-.47-.61-.67-.72-.2-.19.83-1.09,1.12-1.73,1.56-.82.56-1.62,1.14-2.43,1.71-1.12.79-2.49,1.57-3.02,2.91-.88,2.24,1.49,4.37,3.67,4.03,1.12-.18,1.61-1.33,2.17-2.18.86-1.33,1.35-2.86,2.26-4.15.34-.48,1.01-1.54,1.72-1.18.27.14.69.63.87.88.73.98,1.04,2.29,1.77,3.31s1.79,1.99,3.08,2.04c.49.02.97-.14,1.24-.57.37-.59.11-1.41.55-1.96l-.63-.17c.41,1.14.54,2.29.35,3.49-.04.24.17.58.46.46,1.03-.42,2.27-.98,2.64-2.14.45-1.4-.53-2.67-1.54-3.51-.64-.54-1.33-1.02-2-1.52-.44-.34-1.09-1.11-1.73-1.07-1.6.1-.13,2.18-.58,2.78l.51-.13c-.9-.63-2.34-1.87-1.18-2.98.52-.5,1.24-.72,1.73-1.25.7-.76.86-1.87-.09-2.47-.41-.26-1.17-.47-.46-1.04.29-.23,1.09-.16,1.48-.17.92-.02,1.86.04,2.76-.16,1.38-.31,1.34-1.54,1.24-2.75-.09-1.04-.33-3.04-1.29-3.7-.91-.62-1.94.58-2.35,1.28-.82,1.4-1.47,2.66-3.07,3.26-.97.37-2.24.46-3.06,1.16s-.77,1.96-.33,2.86c.17.35.45.81.78,1.03.44.29.95.12,1.45.15l-.19-.7c-1.03.56-1.28,1.56-1.26,2.67l.64-.27c-.84-.91-2.25-1.77-3.48-1.23-.3.13-.21.62.09.69,1.24.29,1.92-.99,2.1-2.03.19-1.12-.08-2.32-.71-3.26-.85-1.25-2.26-1.42-3.36-2.32-1.03-.84-1.49-2.23-2.63-2.97-2.36-1.53-4.5,1.97-3.7,4.06.48,1.26,2,1.99,3.16,2.47,1.36.56,4.76.89,4.11,3.11-.14.46.59.66.72.2h0Z"/>
  <path class="cls-1" d="m12.38.42c-1.46-.98-3.49-.16-3.59,1.68-.06,1,.46,1.97.92,2.83.82,1.53,1.39,2.88.93,4.63l.55-.22c-2.58-1.67-5.17.42-6.97,2.22l.63.36c.45-1.48-.21-3.19-1.86-3.46S-.17,10.02.02,11.63c.07.64.44,1.23,1.05,1.5.22.1.76.03.9.12.26.16.13.64.24.97.57,1.75,2.69,1.01,3.72.21.83-.64,1.51-1.51,2.42-2.06.45-.27,1.02-.65.76.25-.14.48-.46.71-.52,1.25-.09.75.15,1.46.65,2.02.54.6.89,1.02.45,1.82-.32.59-.7,1.11-.94,1.75-.56,1.45-.71,3.93,1.13,4.55,1.73.58,3.08-.99,3.67-2.4.99-2.38,1.59-5.67,1.1-8.23-.54-2.79-3.09.21-3.98,1.07l.64.27c.14-1.45.83-3.08,2.36-3.53.64-.19,1.39-.15,1.98.19.65.37.87,1.09,1.31,1.64,1.03,1.27,2.87,1.8,4.4,1.21s2.74-2.48,2.39-4.2c-.12-.61-.48-1.23-1.14-1.35-1.2-.21-1.88,1.3-3.13,1.21l.38.38c.22-3.46-5.37-1.44-6.84-.7l.51.51c.95-1.44,1.1-3.13.82-4.81-.26-1.52-.71-3.8-2.01-4.83-.37-.3-.91.23-.53.53,1.08.86,1.46,2.78,1.73,4.07.34,1.61.26,3.24-.66,4.65-.22.33.2.67.51.51,1-.5,5.87-2.44,5.71.05-.01.21.18.36.38.38.96.07,1.42-.42,2.2-.84,2.01-1.11,1.34,2.05.57,2.93-.81.91-2.07,1.22-3.22.84-1.27-.42-1.54-1.43-2.36-2.31-.93-.99-2.5-1.15-3.69-.58-1.56.74-2.25,2.43-2.4,4.05-.03.34.42.47.64.27.4-.38.8-.77,1.21-1.15.2-.19.4-.38.6-.58.72,0,1.04.28.95.85.3,1.06-.02,2.68-.18,3.74-.27,1.73-.88,5.54-3.2,5.52-2.02-.02-1.51-2.83-.99-3.96.32-.7.92-1.32,1.11-2.08.16-.62-.05-1.09-.47-1.54-.98-1.07-1.15-1.8-.26-3,.58-.79.32-1.69-.76-1.56-1.44.17-2.49,1.58-3.52,2.44-.44.36-1.2.99-1.82.91-1.54-.2-.82-.88-.92-1.5-.06-.37-.21-.52-.56-.64-.76-.27-1.49.59-1.63-.97-.06-.63.39-1.47.86-1.88,1.52-1.34,2.98.65,2.52,2.15-.11.36.37.63.63.36,1.55-1.55,3.79-3.58,6.06-2.11.2.13.49,0,.55-.22.39-1.49.19-2.88-.49-4.25-.41-.83-1-1.62-1.22-2.52-.37-1.51.81-2.95,2.34-1.93.4.27.78-.38.38-.65h0Z"/>
  <path class="cls-2" d="m98.11.79c-1.22-.06-2.36.53-2.82,1.71-.24.59-.25,1.25-.07,1.86.33,1.09,1.36,1.98.25,3.04-.84.8-2.35,1.35-2.26,2.76s1.68,1.69,2.62,2.36l.09-.69c-2.33.66-3.61-.77-5.37-1.95-1.08-.73-2.39-1.02-3.55-.27s-1.58,2.12-1.06,3.36c.54,1.31,1.79,1.77,3.13,1.81,1.06.03,2.13-.04,3.19-.07.79-.02,2.66-.41,3.19.18s-.08,2.26-.25,3.02c-.22.99-.45,1.98-.53,3-.1,1.27.04,3.01,1.43,3.56,1.08.43,2.24-.2,2.87-1.08,1.27-1.77,1.19-3.62.75-5.65-.22-1.02-.51-1.96-.89-2.92-.21-.53-.4-1.07-.26-1.64.21-.89,1.22-1.85,2.06-.89l.08-.59c-.82.53-1.07,1.55-.57,2.41.74,1.28,2.41,1.39,3.71,1.59,1.36.2,2.84.43,4.06-.38,1.08-.71,1.37-1.99,1.15-3.2-.19-1.03-.77-2.09-1.86-2.33-.54-.12-1.08-.02-1.58.21s-1.87,1.64-2.41,1.22c-.35-.28-.36-.95-.79-1.27s-1.01-.43-1.54-.43c-.74,0-1.49.2-2.17.46s-2.99,1.64-3.11.05l-.47.36c2.74,1.01,4.93-1.51,5.06-4.08.06-1.14-.07-2.51-.33-3.62-.21-.91-.68-1.65-1.64-1.86-.47-.1-.67.62-.2.72,1.49.33,1.32,2.81,1.41,4.01.16,2.29-1.47,5.06-4.1,4.1-.22-.08-.49.13-.47.36.14,1.79,2.04,1.58,3.25,1.05,1.07-.48,3.24-1.5,4.16-.19.34.49.32,1.23,1.07,1.32s1.59-.92,2.16-1.28c.86-.53,1.96-.55,2.5.39.36.63.5,1.54.32,2.25-.48,1.9-2.8,1.64-4.27,1.43-.63-.09-1.3-.15-1.92-.34-.83-.25-2.32-1.46-1.04-2.29.21-.14.24-.4.08-.59-.61-.7-1.65-.8-2.41-.25-.93.67-1.15,2-.82,3.04.53,1.67,1.15,3.22,1.33,5,.11,1.11-.07,2.01-.63,2.99-.68,1.17-2.31,2.03-3.02.37-.77-1.79.24-4.22.58-6.02.15-.79.62-2.35-.3-2.87-.39-.22-.96-.11-1.38-.1-1.05.03-2.1.05-3.14.08-1.7.04-5.6.36-4.83-2.58.37-1.39,1.95-1.78,3.12-1.2.71.35,1.29.91,1.91,1.38,1.37,1.03,2.88,1.44,4.56.96.33-.09.34-.5.09-.69-.39-.28-.82-.46-1.25-.68s-.99-.86-.98-1.36c0-.26.42-.66.61-.84.67-.64,1.6-.96,2.01-1.85.31-.67.14-1.31-.17-1.95-.34-.7-.75-1.35-.54-2.16.26-1.01,1.22-1.52,2.21-1.48.48.02.48-.73,0-.75h0Z"/>
</svg>