<?xml version="1.0" encoding="UTF-8"?>
<svg id="Layer_2" data-name="Layer 2" xmlns="http://www.w3.org/2000/svg" viewBox="0 0 28.12 32.65">
  <defs>
    <style>
      .cls-1 {
        fill: #ffbd2e;
      }
    </style>
  </defs>
  <g id="Layer_1-2" data-name="Layer 1">
    <path class="cls-1" d="m3.72,3.82l.7,2.82c.09.38.54.65.92.52s.63-.51.52-.92l-.7-2.82c-.09-.38-.54-.65-.92-.52s-.63.51-.52.92h0Z"/>
    <path class="cls-1" d="m5.57,12.74l.58,2.89c.08.39.56.64.92.52.41-.13.61-.51.52-.92l-.58-2.89c-.08-.39-.56-.64-.92-.52-.41.13-.61.51-.52.92h0Z"/>
    <path class="cls-1" d="m.95,11.46c.81-.11,1.61-.26,2.4-.46.38-.09.65-.54.52-.92s-.51-.62-.92-.52c-.79.19-1.59.35-2.4.46-.17.02-.37.2-.45.34-.09.16-.13.4-.08.58s.17.36.34.45l.18.08c.13.04.27.04.4,0h0Z"/>
    <path class="cls-1" d="m8.49,9.52c.42-.23.85-.44,1.29-.63.03-.01.06-.03.09-.04-.1.04-.12.05-.06.03.05-.02.11-.04.16-.07.11-.04.22-.08.32-.13.23-.09.47-.17.7-.24.37-.12.65-.53.52-.92-.12-.37-.52-.65-.92-.52-.99.32-1.95.73-2.86,1.23-.34.19-.48.69-.27,1.03s.66.47,1.03.27h0Z"/>
    <path class="cls-1" d="m1.88,7.99l.81.47c.09.05.18.08.28.09.1.02.2.02.3-.01.1-.02.18-.07.26-.13.08-.05.15-.12.19-.21.09-.17.14-.38.08-.58s-.17-.35-.34-.45l-.81-.47c-.09-.05-.18-.08-.28-.09-.1-.02-.2-.02-.3.01-.1.02-.18.07-.26.13-.08.05-.15.12-.19.21-.09.17-.14.38-.08.58s.17.35.34.45h0Z"/>
    <path class="cls-1" d="m3.98,11.04c-.56.51-.87,1.24-.92,1.99-.01.19.09.4.22.53s.34.23.53.22.4-.07.53-.22.21-.32.22-.53c0-.05,0-.11.02-.16l-.03.2c.03-.19.08-.37.15-.54l-.08.18c.07-.17.17-.33.28-.48l-.12.15c.08-.1.16-.19.25-.27.14-.13.22-.35.22-.53s-.08-.4-.22-.53-.33-.23-.53-.22-.38.08-.53.22h0Z"/>
    <path class="cls-1" d="m7.81,6.89c.12-.21.25-.41.4-.6l-.12.15c.14-.17.28-.34.44-.5.14-.14.22-.34.22-.53s-.08-.4-.22-.53-.33-.23-.53-.22-.39.08-.53.22c-.37.37-.69.8-.95,1.25-.1.17-.13.39-.08.58.05.17.18.36.34.45.17.09.38.14.58.08s.35-.17.45-.34h0Z"/>
    <path class="cls-1" d="m8.81,11.54c.12-.03.24-.05.37-.07l-.2.03c.31-.04.61-.04.92,0l-.2-.03c.19.03.38.07.57.12.38.11.83-.14.92-.52s-.12-.8-.52-.92c-.73-.22-1.52-.23-2.25-.05-.38.09-.65.54-.52.92s.51.62.92.52h0Z"/>
    <path class="cls-1" d="m11.76,1.4s.09.06.13.1l-.15-.12c.22.17.41.36.58.58l-.12-.15c.1.13.2.28.28.43.09.16.27.3.45.34.1.03.2.04.3.01.1,0,.19-.03.28-.09.16-.1.3-.26.34-.45s.02-.4-.08-.58c-.15-.27-.34-.53-.55-.76s-.45-.43-.71-.61c-.09-.05-.18-.08-.28-.09-.1-.02-.2-.02-.3.01-.17.05-.36.18-.45.34-.09.17-.14.38-.08.58l.08.18c.07.11.16.2.27.27h0Z"/>
    <path class="cls-1" d="m22.58,1.06c-.18,1.9-1.35,3.56-3.01,4.46-.79.43-.22,1.52.58,1.37,1.28-.23,1.73,1.78,1.92,2.66.29,1.3.35,2.67.17,4-.13.93,1.26,1.36,1.45.4.27-1.41.64-2.8,1.14-4.14.33-.88.92-2.87,2.21-2.64.95.17,1.31-1.11.4-1.45-1.98-.73-2.68-3.01-3.25-4.83-.29-.92-1.74-.53-1.45.4.75,2.41,1.74,4.93,4.3,5.88l.4-1.45c-1.74-.31-2.91.96-3.55,2.44-.75,1.73-1.29,3.54-1.64,5.39l1.45.4c.35-2.55.17-9.25-3.94-8.5l.58,1.37c2.15-1.17,3.52-3.34,3.75-5.76.09-.96-1.41-.95-1.5,0h0Z"/>
    <path class="cls-1" d="m14.66,12.91c.47,3.48-1.55,6.96-4.68,8.46-.82.39-.2,1.5.58,1.37,1.74-.29,3.63,1.48,4.66,2.7,1.18,1.4,1.81,3.22,1.36,5.02l1.47.2c.07-1.85.34-3.67.85-5.45.33-1.14.9-3.89,2.43-3.97.68-.04,1.1-1.06.38-1.4-3.11-1.45-5.29-4.29-5.89-7.67-.17-.95-1.61-.55-1.45.4.66,3.72,3.16,6.97,6.58,8.57l.38-1.4c-2.04.11-2.88,2.11-3.47,3.79-.81,2.29-1.22,4.7-1.31,7.13-.03.84,1.27,1.02,1.47.2.59-2.35-.21-4.67-1.75-6.48s-3.74-3.49-6.12-3.09l.58,1.37c3.8-1.81,5.93-6.02,5.37-10.15-.13-.95-1.57-.55-1.45.4h0Z"/>
    <path class="cls-1" d="m25.65,23.39c.12,0,.23,0,.35.02l-.2-.03c.18.03.35.07.51.14l-.18-.08c.17.07.33.17.48.28l-.15-.12c.13.1.25.22.36.36l-.12-.15.02.02c.05.09.11.16.19.21.07.07.16.11.26.13.18.05.42.03.58-.08s.3-.26.34-.45.04-.42-.08-.58c-.14-.18-.28-.36-.46-.5s-.36-.28-.57-.38c-.42-.2-.87-.32-1.33-.3-.2,0-.39.08-.53.22-.13.13-.23.34-.22.53s.07.4.22.53.33.23.53.22h0Z"/>
  </g>
</svg>