<?xml version="1.0" encoding="UTF-8"?>
<svg id="Layer_2" data-name="Layer 2" xmlns="http://www.w3.org/2000/svg" viewBox="0 0 33.8 34.44">
  <defs>
    <style>
      .cls-1 {
        fill: #67ff0f;
      }
    </style>
  </defs>
  <g id="Layer_1-2" data-name="Layer 1">
    <path class="cls-1" d="m17.95,10.71c-2.02,2.78-4.04,5.58-5.7,8.59-.78,1.42-1.47,2.89-2.05,4.4s-1.28,3.18-.82,4.73c.1.33.39.54.72.55,1.9.06,3.06-1.7,4.08-3.05,1.3-1.72,2.46-3.54,3.49-5.44s1.84-3.71,2.57-5.65c.35-.93.76-1.95.47-2.95-.22-.76-.84-1.39-1.63-1.51-.94-.15-1.35,1.3-.4,1.45,1.51.24-.27,3.62-.6,4.39-.63,1.47-1.35,2.91-2.15,4.31s-1.66,2.75-2.61,4.04c-.72,1-1.81,2.95-3.23,2.91l.72.55c-.42-1.41.57-3.35,1.1-4.64.59-1.43,1.3-2.8,2.07-4.13,1.57-2.72,3.41-5.26,5.26-7.8.57-.78-.73-1.53-1.3-.76h0Z"/>
    <path class="cls-1" d="m18.06,11.14c-.37-3.18-.18-7.55-2.9-9.78-2.28-1.87-5.73-1.7-8.09-.09-2.71,1.84-4.34,5.2-4.66,8.41s1.41,6.74,4.96,7.1c.83.08,1.03-1.33.2-1.47C2.59,14.46-.47,19.83.06,24.28c.23,1.95,1.49,3.88,3.47,4.38,2.57.65,4.77-1.11,6.56-2.7.72-.64-.34-1.7-1.06-1.06-1.28,1.14-2.82,2.54-4.68,2.39s-2.83-2.16-2.85-3.86c-.04-3.13,1.99-7.3,5.67-6.69l.2-1.47c-3.37-.34-3.87-4.34-3.2-6.96.62-2.44,2-4.92,4.28-6.14,2.05-1.1,5.04-.93,6.47,1.1s1.36,5.4,1.64,7.87c.11.95,1.61.96,1.5,0h0Z"/>
    <path class="cls-1" d="m20.69,13.43c2.18-1.72,4.7-3.71,7.64-3.47,3.24.26,4.46,3.01,3.82,5.95-.58,2.65-2.1,5.2-4.05,7.07-1.06,1.01-2.35,1.9-3.79,2.24-1.32.32-4.48.15-3.87-1.98l-1.1.45c1.11.85,1.22,3.08,1.22,4.33,0,1.51-.42,3.14-1.61,4.16-1.37,1.18-3.32.97-4.29-.58-.85-1.36-1.07-2.96-.89-4.53.11-.96-1.39-.95-1.5,0-.24,2.15.27,4.73,1.88,6.29,1.47,1.42,3.83,1.36,5.43.21,1.7-1.21,2.43-3.33,2.47-5.35s-.26-4.54-1.96-5.84c-.4-.3-.98.03-1.1.45-.45,1.59.48,3.05,1.96,3.66,1.74.71,3.72.36,5.36-.43,3.48-1.68,6.03-5.41,7.09-9.05.99-3.39.18-7.24-3.58-8.31s-7.32,1.38-10.2,3.66c-.76.6.31,1.65,1.06,1.06h0Z"/>
    <path class="cls-1" d="m19.2,5.2c1.01,2.21.42,4.79-.72,6.83-.24.42.41.8.65.38,1.29-2.3,1.85-5.12.72-7.59-.2-.44-.85-.06-.65.38h0Z"/>
    <path class="cls-1" d="m24.1,6.9c-.6.13-1.11.48-1.56.88s-.92.88-1.34,1.35-.83.99-1.2,1.52c-.35.5-.8,1.05-.51,1.69.08.19.35.23.51.13.19-.11.22-.33.13-.51-.07-.15.19-.45.27-.57.15-.23.31-.46.48-.68.32-.43.66-.85,1.03-1.25s.72-.76,1.1-1.1.79-.63,1.29-.74c.47-.1.27-.82-.2-.72h0Z"/>
    <path class="cls-1" d="m5.45,8.43c1.02,1.59,2.22,3.07,3.56,4.39.34.34.88-.19.53-.53-1.3-1.28-2.46-2.7-3.45-4.24-.26-.41-.91-.03-.65.38h0Z"/>
    <path class="cls-1" d="m8.83,6.2c.55,2.04,1.92,3.82,3.75,4.88.42.24.8-.41.38-.65-1.66-.96-2.9-2.57-3.4-4.43-.13-.47-.85-.27-.72.2h0Z"/>
    <path class="cls-1" d="m5,19.99c.55.19,1.14.26,1.71.19s1.16-.29,1.7-.55c.18-.09.23-.35.13-.51-.11-.19-.33-.22-.51-.13-.44.21-.9.4-1.38.46s-.99,0-1.46-.17c-.19-.07-.41.08-.46.26-.06.21.07.39.26.46h0Z"/>
    <path class="cls-1" d="m3.85,23.86c1.46-.07,2.91-.35,4.29-.85.19-.07.32-.25.26-.46-.05-.18-.27-.33-.46-.26-1.31.48-2.69.76-4.09.83-.48.02-.48.77,0,.75h0Z"/>
    <path class="cls-1" d="m22.72,15.69c1.44-.09,2.87-.31,4.27-.64.47-.11.27-.83-.2-.72-1.34.32-2.7.52-4.07.61-.48.03-.48.78,0,.75h0Z"/>
    <path class="cls-1" d="m22.25,19.18c1.37.35,2.79.45,4.19.28.2-.02.38-.15.38-.38,0-.18-.17-.4-.38-.38-1.34.16-2.68.08-3.99-.26-.47-.12-.67.6-.2.72h0Z"/>
    <path class="cls-1" d="m15.37,27.74c.04.74.02,1.52-.09,2.22-.03.19.05.41.26.46.18.04.43-.05.46-.26.12-.8.16-1.61.11-2.42-.01-.2-.16-.38-.38-.38-.19,0-.39.17-.38.38h0Z"/>
    <path class="cls-1" d="m16.98,26.81c.13.35.25.71.33,1.08.04.18.08.36.11.53.03.19.05.31.06.52.02.19.16.38.38.38.19,0,.39-.17.38-.38-.07-.8-.24-1.59-.53-2.34-.07-.18-.26-.33-.46-.26-.18.06-.34.27-.26.46h0Z"/>
  </g>
</svg>