<?xml version="1.0" encoding="UTF-8"?>
<svg id="Layer_2" data-name="Layer 2" xmlns="http://www.w3.org/2000/svg" viewBox="0 0 34.62 22.7">
  <defs>
    <style>
      .cls-1 {
        fill: blue;
      }
    </style>
  </defs>
  <g id="Layer_1-2" data-name="Layer 1">
    <path class="cls-1" d="m3.55,18.19c-1.24-3.36-2.62-7.12-1.86-10.75.12-.56.43-1.7,1.22-1.58.61.09.97,1.33,1.16,1.81.7,1.69,1.15,3.49,1.34,5.32.1.95,1.44.98,1.5,0,.1-1.69.32-3.38.92-4.97.3-.78.71-1.62,1.28-2.24.31-.33.52-.45.87-.12.28.26.44.62.56.97.51,1.58.29,3.51.2,5.14-.11,2.05-.39,4.09-.8,6.11-.19.94,1.25,1.35,1.45.4.51-2.49.82-5.02.9-7.57.06-1.92.27-4.42-1.11-5.97-.64-.72-1.59-1.07-2.48-.56s-1.51,1.66-1.93,2.55c-.92,1.96-1.23,4.11-1.35,6.26h1.5c-.24-2.28-.81-4.48-1.76-6.58-.37-.81-.82-1.72-1.76-1.98s-1.85.19-2.41.9c-.64.81-.81,1.89-.92,2.89-.13,1.16-.07,2.32.09,3.48.33,2.38,1.12,4.66,1.95,6.91.33.9,1.78.51,1.45-.4h0Z"/>
    <g>
      <path class="cls-1" d="m18.76,17.6c-1.39-.32-2.99-1.42-3.71-2.67-.38-.67-.62-1.46-.47-2.22s.77-1.45,1.53-1.51c.57-.04,1.13.26,1.52.69s.64.97.87,1.5c.03-.63.11-1.27.42-1.81s.91-.95,1.52-.88c.46.05.86.36,1.12.74.73,1.04.51,2.53-.17,3.6s-1.76,1.82-2.81,2.54"/>
      <path class="cls-1" d="m18.96,16.87c-1.58-.39-3.43-1.69-3.66-3.42-.08-.63.24-1.51.92-1.51.9,0,1.35,1.16,1.64,1.83.13.3.56.42.85.34.33-.09.53-.39.55-.72.03-.64.15-1.84.99-1.95.7-.08,1.02.95,1.03,1.48.03,1.88-1.68,3.07-3.06,4.02-.33.23-.48.66-.27,1.03.19.33.69.5,1.03.27,1.63-1.12,3.41-2.44,3.74-4.54.16-1.02,0-2.06-.67-2.87s-1.83-1.14-2.8-.59c-1.13.64-1.43,1.95-1.49,3.15l1.4-.38c-.41-.94-.95-1.9-1.93-2.34s-2.08-.2-2.76.63c-1.44,1.75-.33,4.17,1.18,5.46.84.72,1.84,1.29,2.92,1.55.94.23,1.34-1.22.4-1.45h0Z"/>
    </g>
    <path class="cls-1" d="m27.39,17.19c-.33-2-.61-4.03-.42-6.07.09-.91.29-1.82.62-2.67.24-.61.68-1.86,1.51-1.78s1.3.96,1.6,1.65c.37.85.64,1.75.83,2.65.39,1.86.41,3.79.06,5.65-.18.94,1.27,1.35,1.45.4.34-1.82.38-3.64.12-5.47-.24-1.68-.71-3.63-1.73-5.02s-2.94-1.96-4.15-.55c-1.13,1.32-1.59,3.26-1.78,4.95-.25,2.23.09,4.47.45,6.66.16.95,1.6.55,1.45-.4h0Z"/>
    <path class="cls-1" d="m24.9,15.33c2.81-1.25,5.92-1.7,8.97-1.38.4.04.75-.37.75-.75,0-.44-.35-.71-.75-.75-3.33-.34-6.67.23-9.73,1.59-.37.16-.46.7-.27,1.03.22.38.65.43,1.03.27h0Z"/>
    <path class="cls-1" d="m15.17,6.75c-.93-1.64-1.62-3.39-2.06-5.22-.11-.47-.84-.27-.72.2.45,1.89,1.17,3.71,2.13,5.4.24.42.89.04.65-.38h0Z"/>
    <path class="cls-1" d="m18.28,6.25c.07-1.97.4-3.91.98-5.79.14-.46-.58-.66-.72-.2-.59,1.94-.93,3.96-1,5.99-.02.48.73.48.75,0h0Z"/>
    <path class="cls-1" d="m22.34,7.58c.88-1.73,2.14-3.26,3.7-4.42.16-.12.24-.32.13-.51-.09-.16-.35-.26-.51-.13-1.66,1.24-3.03,2.84-3.97,4.69-.22.43.43.81.65.38h0Z"/>
    <path class="cls-1" d="m15.88,18.63c-1.27.86-2.22,2.13-2.67,3.6-.14.46.58.66.72.2.39-1.28,1.22-2.41,2.32-3.16.17-.11.24-.33.13-.51-.1-.17-.34-.25-.51-.13h0Z"/>
    <path class="cls-1" d="m21.7,19.31c1.07.71,1.9,1.71,2.43,2.88.08.18.35.23.51.13.19-.11.22-.33.13-.51-.58-1.28-1.53-2.37-2.7-3.15-.17-.11-.41-.03-.51.13-.11.18-.03.4.13.51h0Z"/>
  </g>
</svg>