<?xml version="1.0" encoding="UTF-8"?>
<svg id="Layer_2" data-name="Layer 2" xmlns="http://www.w3.org/2000/svg" xmlns:xlink="http://www.w3.org/1999/xlink" viewBox="0 0 511.11 538.97">
  <defs>
    <style>
      .cls-1 {
        fill: #fff;
      }
    </style>
  </defs>
  <g id="Layer_1-2" data-name="Layer 1">
    <image width="500" height="500" transform="translate(34.51 43.98) scale(.9)" xlink:href="../../../../../Downloads/Untitled design (1).png"/>
    <path class="cls-1" d="m104.74,516.32c-24.2-3.47-47.22-13.22-66.73-27.93-9.62-7.25-18.31-15.8-25.78-25.24-3.08-3.89-8.05-10.1-5.73-15.24.51-1.14.85-1.5,1.78-2.29.72-.62-.23.14.23-.17.21-.14.42-.28.64-.41.76-.44.93-.51,1.54-.72,2.4-.82,4.37-.93,7.01-.74,1.37.1,2.36.28,3.92.65s3.23.86,4.81,1.42c3.02,1.07,5.92,2.5,8.66,4.2,5.58,3.45,10.42,8.1,14.03,13.59.82,1.24,2.34,1.85,3.75,1.23,1.29-.56,2.24-2.1,1.74-3.54-1.87-5.36-3.87-10.9-4.06-16.64-.15-4.52.92-8.83,3.87-12.13.6-.67,1.47-1.51,2.03-1.94.42-.31.87-.6,1.32-.86.4-.23.97-.53,1.15-.6.47-.19.97-.35,1.46-.47.22-.06.44-.11.67-.15,1.05-.19-.23,0,.39-.05,1.15-.09,1.87-.04,2.85.22,3.63.95,6.46,4.35,7.7,7.87,1.81,5.13,1.41,10.69,1,16.02s-1.02,10.71-1.86,16.02c-1.71,10.86-4.27,21.58-7.64,32.05-3.77,11.73-8.58,23.1-14.36,33.98-.76,1.43-.36,3.26,1.08,4.1,1.36.79,3.34.36,4.1-1.08,11.21-21.11,18.94-44.07,22.64-67.69.95-6.07,1.67-12.17,2.11-18.3s.62-12.03-1.6-17.56c-1.99-4.96-5.7-9.29-10.89-11.01s-10.3-.02-14.31,3.21c-4.72,3.81-7.23,9.6-7.65,15.55-.51,7.22,1.88,14.31,4.23,21.02l5.48-2.31c-7.28-11.07-18.84-19.29-31.83-22.14-5.46-1.2-12.02-1.31-16.87,1.9-2.67,1.77-4.72,4.47-5.35,7.65-.75,3.74.19,7.38,1.8,10.76,1.47,3.09,3.58,5.81,5.69,8.49s4.14,5.08,6.34,7.5c4.4,4.85,9.13,9.4,14.14,13.62,10.03,8.43,21.11,15.6,32.96,21.18,13.28,6.26,27.41,10.63,41.95,12.72,1.6.23,3.22-.39,3.69-2.1.39-1.41-.48-3.46-2.1-3.69h0Z"/>
    <path class="cls-1" d="m436.47,55.86c5.91-17.7,13.27-34.87,22-51.36.76-1.43.36-3.26-1.08-4.1-1.36-.79-3.34-.36-4.1,1.08-8.96,16.94-16.53,34.62-22.6,52.8-.51,1.54.59,3.28,2.1,3.69,1.64.45,3.17-.55,3.69-2.1h0Z"/>
    <path class="cls-1" d="m395.1,49.03c-11.26-10.11-20.59-22.13-27.59-35.55-.75-1.44-2.75-1.87-4.1-1.08-1.46.85-1.83,2.66-1.08,4.1,7.21,13.82,16.93,26.34,28.53,36.76,1.2,1.08,3.05,1.19,4.24,0,1.1-1.1,1.21-3.16,0-4.24h0Z"/>
    <path class="cls-1" d="m453.07,85.06c9.38-.19,18.77-.38,28.15-.57,4.56-.09,9.11-.19,13.67-.4,2.28-.1,4.55-.24,6.82-.41,1.14-.09,2.27-.18,3.4-.29,1.23-.12,2.62-.11,3.8-.5,1.53-.52,2.54-2.06,2.1-3.69-.41-1.5-2.15-2.62-3.69-2.1-.78.26-1.8.25-2.69.34-1.13.1-2.27.2-3.4.28-2.27.17-4.55.29-6.82.4-4.55.2-9.11.3-13.67.39-9.22.19-18.44.37-27.66.56-3.86.08-3.87,6.08,0,6h0Z"/>
    <path class="cls-1" d="m454.79,66.91c8.78-7.41,17.56-14.83,26.34-22.24,1.24-1.05,1.08-3.16,0-4.24-1.23-1.23-3-1.05-4.24,0-8.78,7.41-17.56,14.83-26.34,22.24-1.24,1.05-1.08,3.16,0,4.24,1.23,1.23,3,1.05,4.24,0h0Z"/>
    <path class="cls-1" d="m406.79,15.19c2.02,12.27,4.04,24.54,6.06,36.8.26,1.6,2.25,2.49,3.69,2.1,1.7-.47,2.36-2.09,2.1-3.69-2.02-12.27-4.04-24.54-6.06-36.8-.26-1.6-2.25-2.49-3.69-2.1-1.7.47-2.36,2.09-2.1,3.69h0Z"/>
  </g>
</svg>